<?xml version='1.0' encoding='utf-8'?>
<svg xmlns="http://www.w3.org/2000/svg" enable-background="new 0 0 4233.2202 5000" version="1.1" viewBox="0 0 4233.2 5e3"> <path d="m1040.4 1367.1c164.65 117.11 301.48 242.96 395.4 376.97 30.158-154.14-419.76-563.12-522.73-713.73-246.29-360.21-279.94-665.04-110.58-1030.4-247.93 231.48-330.22 510.44-211.1 846.08 65.032 183.24 215.2 354.75 449.01 521.05z"/> <path d="m881.27 1501.2c177.47 83.558 351.45 173.13 477.49 309.95 150.23 163.07 276.47 243.47 418.85 273.09-163.36-119.82-326.97-292.54-517.7-460.74-77.918-68.715-243.1-195.34-328.38-254.66-237.52-165.23-424.85-316.19-562.94-624.93-62.334-139.36-61.919-290.56-31.833-442.31-202.84 260.88-231.64 538.25-20.105 792.47 148.81 178.84 346.31 304.34 564.61 407.13z"/> <path d="m299.9 1499.5c124.9 98.172 321.58 158.72 549.54 206.08 185.71 38.58 356.83 83.798 502.62 137.38-75.728-77.272-309.67-181.88-542.83-284.82-373.64-164.96-653.02-340.75-785.77-537.81 28.773 179.23 105.43 344.75 276.44 479.17z"/> <path d="m861.16 1950.2c252.43 5.0262 440.52-1.3052 566.29 23.456-98.899-75.851-252.55-108.49-442.31-159.16-122.83-32.799-309.12-69.884-490.9-97.174-213.46-34.722-379.98-98.413-494.25-194.35 95.245 200.48 256.78 300.67 518.26 392.05 80.536 28.146 209.92 32.536 342.9 35.184z"/> <path d="m1595 2079.2c-66.347-37.833-194.81-46.462-339.55-48.028-235.9-2.5529-461.36-6.3107-690.64-13.031-126.91-3.7197-240.04-21.181-328.57-54.544 108.06 125.77 235.29 223.83 398.75 232.88 323.5 17.919 643.84-44.976 960.01-117.28z"/> <path d="m903.05 2427.7c331.31-61.406 612.25-169.27 785.77-291.52-272.75 25.081-590.16 104.92-974.47 149.85-43.084 5.0378-86.714 2.3699-128.92-7.6409-45.666-10.831-93.262-11.319-138.09-13.206 120.24 124.03 269.55 197.02 455.71 162.52z"/> <path d="m1236.5 2571.8c203.46-105.45 374.51-231.41 514.35-385.35-238.79 122.93-471.87 232.21-689.34 304.14-38.812 12.838-78.999 21.108-119.76 24.202-79.169 6.0095-166.21 17.074-256.46 30.193 163.59 122.65 343.42 134.5 551.21 26.807z"/> <path d="m1435.8 2685.7c137.12-111.68 246.59-246.25 338.43-395.4-104.81 49.231-242.79 173.98-402.1 298.22-143.48 111.9-298.77 165.67-450.69 149.11 145.2 135.71 376.04 93.265 514.35-51.938z"/> <path d="m1226.4 2932c125.46 25.658 240.36 9.1667 331.73-73.718 147-133.33 221.17-294.81 236.23-469.12-164.58 228.95-347.44 422.43-567.97 542.83z"/> <path d="m1566.5 2985.6c80.681-17.075 155.52-69.084 226.18-154.14 71.255-85.767 85.033-199.24 63.666-330.06-63.034 192.3-158.06 355.16-289.85 484.19z"/> <path d="m3192.8 1367.1c233.81-166.3 383.98-337.82 449.01-521.05 119.12-335.64 36.83-614.61-211.1-846.08 169.37 365.34 135.71 670.17-110.58 1030.4-102.97 150.61-552.89 559.59-522.73 713.73 93.922-134.01 230.75-259.86 395.4-376.97z"/> <path d="m3301.7 1368.8c-85.284 59.327-250.46 185.95-328.38 254.66-190.73 168.2-354.35 340.92-517.7 460.74 142.38-29.622 268.62-110.02 418.85-273.09 126.05-136.82 300.03-226.39 477.49-309.95 218.3-102.78 415.81-228.29 564.62-407.13 211.54-254.22 182.74-531.59-20.105-792.47 30.086 151.75 30.501 302.95-31.833 442.31-138.09 308.74-325.42 459.7-562.94 624.93z"/> <path d="m2881.2 1843c145.79-53.586 316.91-98.805 502.62-137.38 227.95-47.355 424.64-107.9 549.54-206.08 171.01-134.42 247.67-299.94 276.44-479.17-132.75 197.06-412.13 372.85-785.77 537.81-233.17 102.94-467.11 207.55-542.83 284.82z"/> <path d="m3739 1717.3c-181.78 27.29-368.06 64.375-490.9 97.174-189.76 50.671-343.41 83.314-442.31 159.16 125.77-24.761 313.86-18.429 566.29-23.456 132.99-2.6481 262.37-7.0385 342.9-35.184 261.48-91.381 423.02-191.57 518.26-392.05-114.27 95.935-280.78 159.63-494.25 194.35z"/> <path d="m2977.8 2031.2c-144.75 1.5664-273.2 10.196-339.55 48.028 316.17 72.303 636.51 135.2 960.01 117.28 163.45-9.054 290.69-107.11 398.75-232.88-88.53 33.363-201.66 50.824-328.57 54.544-229.29 6.7203-454.75 10.478-690.64 13.031z"/> <path d="m3518.9 2286c-384.31-44.938-701.72-124.77-974.47-149.85 173.52 122.25 454.46 230.12 785.77 291.52 186.16 34.503 335.47-38.484 455.71-162.52-44.827 1.8872-92.423 2.3748-138.09 13.206-42.206 10.011-85.837 12.679-128.92 7.6408z"/> <path d="m3171.8 2490.6c-217.47-71.934-450.56-181.22-689.34-304.14 139.85 153.93 310.89 279.9 514.35 385.35 207.8 107.69 387.62 95.847 551.21-26.807-90.245-13.118-177.29-24.183-256.46-30.193-40.762-3.0941-80.95-11.365-119.76-24.202z"/> <path d="m2861.1 2588.5c-159.31-124.24-297.29-248.99-402.1-298.22 91.846 149.15 201.31 283.72 338.43 395.4 138.31 145.2 369.15 187.65 514.35 51.938-151.92 16.56-307.21-37.216-450.69-149.11z"/> <path d="m3006.8 2932c-220.53-120.41-403.39-313.89-567.97-542.83 15.061 174.31 89.238 335.78 236.23 469.12 91.377 82.885 206.28 99.376 331.73 73.718z"/> <path d="m2440.5 2831.5c70.662 85.054 145.5 137.06 226.18 154.14-131.79-129.04-226.81-291.9-289.85-484.19-21.367 130.82-7.5894 244.29 63.666 330.06z"/> <path d="m2940.9 3527.9c-207.21-123.58-393.91-235.1-526.08-379.76-162.42-177.77-227.62-402.81-242.38-647.83 46.088 68.55 78.456 173.74 102.76 300.46 1.8306-168.16 56.239-309.91 107.23-450.13 41.699-114.67 49.637-259.04 7.8184-385.35-36.376-109.87-76.103-242.81-82.654-390.93-5.4883-124.09-37.282-238.87-113.93-344.02 72.35 72.14 155.72 81.868 247.96 41.327-67.037-6.9813-119.13-19.827-146.32-42.444 90.595 2.8907 152.97-28.805 185.41-97.174-43.891 29.58-88.123 45.517-132.92 39.093 33.713-11.787 59.732-26.688 72.601-46.912-45.975 15.945-124.23 22.603-194.35 6.7017-73.795-16.735-117.06-22.624-176.48-18.988-120.13 7.3513-193.54 53.237-203.28 158.61-29.5-3.7263-55.406 5.1184-74.835 30.158-24.906 32.098-25.615 76.656-13.403 127.33 9.8755-22.856 19.469-40.572 31.274-50.263 37.418-30.716 129.57-30.716 170.89-5.5847 88.18 53.623 132.81 119.56 118.4 222.27-2.6008-33.728-9.877-65.925-23.456-96.057-5.5847 159.72-125.14 265.35-197.7 462.41-57.446 156.02-37.565 318.24 30.158 471.35 44.519 100.65 73.542 225.9 84.888 371.94 18.435-120.95 47.71-225.45 94.94-302.69-14.568 198.88-64.16 381.32-164.19 539.48-105.18 166.31-296.71 320.11-540.6 450.13-168.66 89.914-297.11 224.51-312.19 357.42-23.968 211.28 31.876 365.22 162.52 464.09-51.389-213.74 10.471-392.3 185.97-526.08 121.85-92.881 252.96-196.04 373.62-325.03 169.78-181.5 291.23-475.1 321.68-774.04 13.592 134.93-2.1792 285.03-55.289 440.63-67.224 196.96-208.41 392.46-375.29 586.4-146.1 169.77-251.87 363.01-226.18 567.97 25.784 205.71 133.56 344.36 268.07 430.58-74.764-103.95-89.595-244.53-46.912-398.75 52.78-190.7 127.33-316.1 216.13-554.56 106.86-286.98 221.84-535.93 245.17-789.12 40.364 277.73 125.72 525.61 232.32 751.7 82.34 174.63 149.14 348.75 206.63 513.79 66.317 190.37 69.33 366.19-33.508 481.4 105.97-44.768 176.19-148.3 233.44-279.24 99.788-228.23 45.421-475.6-150.79-695.86-173.13-194.35-271.65-325.83-356.3-484.75-104.16-195.55-109.5-383.24-94.94-571.87 35.169 265.31 101.74 483.23 194.35 605.38 311.63 411.04 183.53 201.44 547.3 549.54 129.57 123.98 153.02 252.43 127.33 478.05 75.787-66.418 134.47-160.48 165.31-283.7 51.143-204.35-41.799-382.8-250.2-507.09zm-951.08-2264.6c-51.938 18.988-77.628 3.9094-77.628 3.9094s7.2603-65.341 155.81-61.99c0 0-26.248 39.093-78.186 58.081z"/> <path d="m2125 3239.7c-56.396 203.28-92.507 414.39-173.67 607.62-94.094 223.98-126.77 457.53-51.389 694.74 57.103 179.68 198.82 321.68 225.06 457.95 26.243-136.26 167.96-278.27 225.06-457.95 75.382-237.21 42.704-470.76-51.39-694.74-81.168-193.22-117.28-404.34-173.67-607.62zm-8.3679 1584.9c-30.167-174.25-108.39-227.82-102.76-580.81 3.0153-188.84 46.441-464.51 102.76-763.99 56.324 299.48 99.75 575.15 102.75 763.99 5.6267 352.99-72.598 406.56-102.75 580.81z"/> </svg>